<svg xmlns="http://www.w3.org/2000/svg" version="1.1" xmlns:xlink="http://www.w3.org/1999/xlink" xmlns:svgjs="http://svgjs.dev/svgjs" viewBox="0 0 800 800"><defs><linearGradient x1="50%" y1="0%" x2="50%" y2="100%" id="ffflurry-grad" gradientTransform="rotate(270)"><stop stop-color="hsl(0, 0%, 100%)" stop-opacity="1" offset="0%"></stop><stop stop-color="#b56576" stop-opacity="1" offset="45%"></stop><stop stop-color="#355070" stop-opacity="1" offset="100%"></stop></linearGradient></defs><rect width="100%" height="100%" fill="hsl(0, 0%, 100%)"></rect><g fill="url(#ffflurry-grad)"><rect width="191" height="5" x="295.5" y="235.5" rx="2.5" transform="rotate(20, 391, 238)" opacity="0.10"></rect><rect width="113" height="5" x="335.5" y="54.5" rx="2.5" transform="rotate(20, 392, 57)" opacity="0.75"></rect><rect width="202" height="5" x="238" y="677.5" rx="2.5" transform="rotate(20, 339, 680)" opacity="0.87"></rect><rect width="330" height="5" x="478" y="207.5" rx="2.5" transform="rotate(20, 643, 210)" opacity="0.25"></rect><rect width="208" height="5" x="462" y="684.5" rx="2.5" transform="rotate(20, 566, 687)" opacity="0.08"></rect><rect width="256" height="5" x="490" y="101.5" rx="2.5" transform="rotate(20, 618, 104)" opacity="0.76"></rect><rect width="168" height="5" x="51" y="446.5" rx="2.5" transform="rotate(20, 135, 449)" opacity="0.20"></rect><rect width="69" height="5" x="573.5" y="440.5" rx="2.5" transform="rotate(20, 608, 443)" opacity="0.87"></rect><rect width="232" height="5" x="271" y="628.5" rx="2.5" transform="rotate(20, 387, 631)" opacity="0.18"></rect><rect width="238" height="5" x="639" y="72.5" rx="2.5" transform="rotate(20, 758, 75)" opacity="0.49"></rect><rect width="38" height="5" x="742" y="15.5" rx="2.5" transform="rotate(20, 761, 18)" opacity="0.47"></rect><rect width="138" height="5" x="482" y="763.5" rx="2.5" transform="rotate(20, 551, 766)" opacity="0.65"></rect><rect width="242" height="5" x="-55" y="514.5" rx="2.5" transform="rotate(20, 66, 517)" opacity="0.36"></rect><rect width="263" height="5" x="268.5" y="319.5" rx="2.5" transform="rotate(20, 400, 322)" opacity="0.51"></rect><rect width="190" height="5" x="392" y="651.5" rx="2.5" transform="rotate(20, 487, 654)" opacity="0.13"></rect><rect width="155" height="5" x="642.5" y="276.5" rx="2.5" transform="rotate(20, 720, 279)" opacity="0.37"></rect><rect width="246" height="5" x="643" y="339.5" rx="2.5" transform="rotate(20, 766, 342)" opacity="0.71"></rect><rect width="91" height="5" x="548.5" y="286.5" rx="2.5" transform="rotate(20, 594, 289)" opacity="0.22"></rect><rect width="172" height="5" x="464" y="510.5" rx="2.5" transform="rotate(20, 550, 513)" opacity="0.91"></rect><rect width="272" height="5" x="507" y="354.5" rx="2.5" transform="rotate(20, 643, 357)" opacity="0.41"></rect><rect width="78" height="5" x="233" y="629.5" rx="2.5" transform="rotate(20, 272, 632)" opacity="0.50"></rect><rect width="193" height="5" x="328.5" y="472.5" rx="2.5" transform="rotate(20, 425, 475)" opacity="0.24"></rect><rect width="76" height="5" x="99" y="145.5" rx="2.5" transform="rotate(20, 137, 148)" opacity="0.36"></rect><rect width="149" height="5" x="399.5" y="56.5" rx="2.5" transform="rotate(20, 474, 59)" opacity="0.81"></rect><rect width="271" height="5" x="224.5" y="538.5" rx="2.5" transform="rotate(20, 360, 541)" opacity="0.50"></rect><rect width="91" height="5" x="565.5" y="752.5" rx="2.5" transform="rotate(20, 611, 755)" opacity="0.98"></rect><rect width="86" height="5" x="506" y="65.5" rx="2.5" transform="rotate(20, 549, 68)" opacity="0.39"></rect><rect width="62" height="5" x="727" y="616.5" rx="2.5" transform="rotate(20, 758, 619)" opacity="0.20"></rect><rect width="38" height="5" x="462" y="760.5" rx="2.5" transform="rotate(20, 481, 763)" opacity="0.32"></rect><rect width="55" height="5" x="426.5" y="179.5" rx="2.5" transform="rotate(20, 454, 182)" opacity="0.43"></rect><rect width="86" height="5" x="122" y="262.5" rx="2.5" transform="rotate(20, 165, 265)" opacity="0.63"></rect><rect width="61" height="5" x="26.5" y="59.5" rx="2.5" transform="rotate(20, 57, 62)" opacity="0.27"></rect><rect width="196" height="5" x="592" y="671.5" rx="2.5" transform="rotate(20, 690, 674)" opacity="0.75"></rect><rect width="115" height="5" x="710.5" y="455.5" rx="2.5" transform="rotate(20, 768, 458)" opacity="0.29"></rect><rect width="269" height="5" x="540.5" y="49.5" rx="2.5" transform="rotate(20, 675, 52)" opacity="0.28"></rect><rect width="214" height="5" x="407" y="580.5" rx="2.5" transform="rotate(20, 514, 583)" opacity="0.68"></rect><rect width="325" height="5" x="137.5" y="57.5" rx="2.5" transform="rotate(20, 300, 60)" opacity="0.73"></rect><rect width="93" height="5" x="-9.5" y="434.5" rx="2.5" transform="rotate(20, 37, 437)" opacity="0.90"></rect><rect width="110" height="5" x="599" y="518.5" rx="2.5" transform="rotate(20, 654, 521)" opacity="0.39"></rect><rect width="214" height="5" x="354" y="529.5" rx="2.5" transform="rotate(20, 461, 532)" opacity="0.97"></rect><rect width="50" height="5" x="678" y="424.5" rx="2.5" transform="rotate(20, 703, 427)" opacity="0.79"></rect><rect width="87" height="5" x="488.5" y="272.5" rx="2.5" transform="rotate(20, 532, 275)" opacity="0.67"></rect><rect width="205" height="5" x="641.5" y="763.5" rx="2.5" transform="rotate(20, 744, 766)" opacity="0.87"></rect><rect width="107" height="5" x="214.5" y="752.5" rx="2.5" transform="rotate(20, 268, 755)" opacity="0.11"></rect><rect width="52" height="5" x="146" y="369.5" rx="2.5" transform="rotate(20, 172, 372)" opacity="0.14"></rect><rect width="345" height="5" x="104.5" y="525.5" rx="2.5" transform="rotate(20, 277, 528)" opacity="0.21"></rect><rect width="244" height="5" x="626" y="540.5" rx="2.5" transform="rotate(20, 748, 543)" opacity="0.20"></rect><rect width="171" height="5" x="-54.5" y="695.5" rx="2.5" transform="rotate(20, 31, 698)" opacity="0.51"></rect><rect width="80" height="5" x="404" y="384.5" rx="2.5" transform="rotate(20, 444, 387)" opacity="0.75"></rect><rect width="324" height="5" x="88" y="433.5" rx="2.5" transform="rotate(20, 250, 436)" opacity="0.77"></rect><rect width="363" height="5" x="-6.5" y="563.5" rx="2.5" transform="rotate(20, 175, 566)" opacity="0.54"></rect><rect width="163" height="5" x="240.5" y="283.5" rx="2.5" transform="rotate(20, 322, 286)" opacity="0.21"></rect><rect width="310" height="5" x="106" y="174.5" rx="2.5" transform="rotate(20, 261, 177)" opacity="0.75"></rect><rect width="119" height="5" x="84.5" y="762.5" rx="2.5" transform="rotate(20, 144, 765)" opacity="0.56"></rect><rect width="132" height="5" x="-12" y="359.5" rx="2.5" transform="rotate(20, 54, 362)" opacity="0.32"></rect><rect width="155" height="5" x="394.5" y="276.5" rx="2.5" transform="rotate(20, 472, 279)" opacity="0.36"></rect><rect width="277" height="5" x="392.5" y="181.5" rx="2.5" transform="rotate(20, 531, 184)" opacity="0.78"></rect><rect width="50" height="5" x="32" y="286.5" rx="2.5" transform="rotate(20, 57, 289)" opacity="0.25"></rect><rect width="63" height="5" x="165.5" y="687.5" rx="2.5" transform="rotate(20, 197, 690)" opacity="0.97"></rect><rect width="357" height="5" x="170.5" y="414.5" rx="2.5" transform="rotate(20, 349, 417)" opacity="0.25"></rect><rect width="132" height="5" x="702" y="695.5" rx="2.5" transform="rotate(20, 768, 698)" opacity="0.54"></rect><rect width="108" height="5" x="461" y="434.5" rx="2.5" transform="rotate(20, 515, 437)" opacity="0.10"></rect><rect width="220" height="5" x="141" y="311.5" rx="2.5" transform="rotate(20, 251, 314)" opacity="0.77"></rect><rect width="297" height="5" x="228.5" y="153.5" rx="2.5" transform="rotate(20, 377, 156)" opacity="0.59"></rect><rect width="188" height="5" x="-43" y="599.5" rx="2.5" transform="rotate(20, 51, 602)" opacity="0.36"></rect><rect width="39" height="5" x="29.5" y="764.5" rx="2.5" transform="rotate(20, 49, 767)" opacity="0.80"></rect><rect width="365" height="5" x="8.5" y="55.5" rx="2.5" transform="rotate(20, 191, 58)" opacity="0.40"></rect><rect width="54" height="5" x="405" y="589.5" rx="2.5" transform="rotate(20, 432, 592)" opacity="0.14"></rect><rect width="47" height="5" x="639.5" y="601.5" rx="2.5" transform="rotate(20, 663, 604)" opacity="0.31"></rect><rect width="237" height="5" x="320.5" y="705.5" rx="2.5" transform="rotate(20, 439, 708)" opacity="0.40"></rect><rect width="228" height="5" x="418" y="357.5" rx="2.5" transform="rotate(20, 532, 360)" opacity="0.58"></rect><rect width="165" height="5" x="292.5" y="757.5" rx="2.5" transform="rotate(20, 375, 760)" opacity="0.86"></rect><rect width="119" height="5" x="525.5" y="606.5" rx="2.5" transform="rotate(20, 585, 609)" opacity="0.82"></rect><rect width="152" height="5" x="36" y="670.5" rx="2.5" transform="rotate(20, 112, 673)" opacity="0.40"></rect><rect width="271" height="5" x="527.5" y="738.5" rx="2.5" transform="rotate(20, 663, 741)" opacity="0.90"></rect><rect width="249" height="5" x="-69.5" y="194.5" rx="2.5" transform="rotate(20, 55, 197)" opacity="0.95"></rect><rect width="381" height="5" x="556.5" y="168.5" rx="2.5" transform="rotate(20, 747, 171)" opacity="0.61"></rect></g></svg>