<svg xmlns="http://www.w3.org/2000/svg" version="1.1" xmlns:xlink="http://www.w3.org/1999/xlink" xmlns:svgjs="http://svgjs.dev/svgjs" viewBox="0 0 1422 800" opacity="1"><defs><linearGradient x1="50%" y1="0%" x2="50%" y2="100%" id="oooscillate-grad"><stop stop-color="#b56576" stop-opacity="1" offset="0%"></stop><stop stop-color="#91abca" stop-opacity="1" offset="100%"></stop></linearGradient></defs><g stroke-width="20" stroke="url(#oooscillate-grad)" fill="none" stroke-linecap="round"><path d="M 0 560 Q 355.5 120 711 400 Q 1066.5 680 1422 560"></path><path d="M 0 490 Q 355.5 120 711 400 Q 1066.5 680 1422 490"></path><path d="M 0 420 Q 355.5 120 711 400 Q 1066.5 680 1422 420"></path><path d="M 0 350 Q 355.5 120 711 400 Q 1066.5 680 1422 350"></path><path d="M 0 280 Q 355.5 120 711 400 Q 1066.5 680 1422 280"></path><path d="M 0 210 Q 355.5 120 711 400 Q 1066.5 680 1422 210"></path><path d="M 0 140 Q 355.5 120 711 400 Q 1066.5 680 1422 140"></path></g></svg>