<?xml version="1.0" standalone="no"?>
<svg viewBox="0 0 200 200" xmlns="http://www.w3.org/2000/svg">
  <path fill="#B56576" d="M24.3,-33.8C35.6,-35.5,51.8,-37.4,63.5,-31.8C75.3,-26.2,82.5,-13.1,73.6,-5.1C64.7,2.8,39.6,5.6,31,16.6C22.4,27.6,30.3,46.9,27.9,61.6C25.5,76.3,12.7,86.5,-1.6,89.3C-16,92.1,-31.9,87.5,-38.9,75.4C-46,63.4,-44.1,43.9,-42.8,30.1C-41.5,16.2,-40.7,8.1,-43.5,-1.6C-46.2,-11.3,-52.3,-22.5,-50.2,-30.3C-48,-38.1,-37.5,-42.4,-27.7,-41.6C-18,-40.9,-9,-35.2,-1.3,-33C6.5,-30.8,12.9,-32.2,24.3,-33.8Z" transform="translate(100 100)" />
</svg>
